HIERARCHY
ROOT pelvis
{
  OFFSET 0 100 0
  CHANNELS 6 Xposition Yposition Zposition Zrotation Xrotation Yrotation
  JOINT pelvis_right_femur
  {
    OFFSET -10.78128 -3.44521 -0.5502486
    CHANNELS 3 Zrotation Xrotation Yrotation
    JOINT right_femur_tibia
    {
      OFFSET -0.8047443 -44.0398 -0.1307829
      CHANNELS 3 Zrotation Xrotation Yrotation
      JOINT right_tibia_foot
      {
        OFFSET 3.006224 -47.83518 -5
        CHANNELS 3 Zrotation Xrotation Yrotation
        End Site
        {
          OFFSET 0 -5 15
        }
      }
    }
  }
  JOINT pelvis_left_femur
  {
    OFFSET 10.78128 -3.44521 -0.5502486
    CHANNELS 3 Zrotation Xrotation Yrotation
    JOINT left_femur_tibia
    {
      OFFSET 0.8047443 -44.0398 -0.1307829
      CHANNELS 3 Zrotation Xrotation Yrotation
      JOINT left_tibia_foot
      {
        OFFSET -4.370144 -48.10324 -4.275266
        CHANNELS 3 Zrotation Xrotation Yrotation
        End Site
        {
          OFFSET 0 -5 15
        }
      }
    }
  }
  JOINT pelvis_spine1
  {
    OFFSET 0 6.468898 -3.129235
    CHANNELS 3 Zrotation Xrotation Yrotation
    JOINT spine1
    {
      OFFSET 0 23.15396 4.99043
      CHANNELS 3 Zrotation Xrotation Yrotation
      JOINT spine2
      {
        OFFSET 0 20.79997 -5.064912
        CHANNELS 3 Zrotation Xrotation Yrotation
        JOINT neck
        {
          OFFSET 0 14.38658 9.616178
          CHANNELS 3 Zrotation Xrotation Yrotation
          End Site
          {
            OFFSET 0 20 0
          }
        }
      }
      JOINT right_manubrium
      {
        OFFSET -5.722621 16.35077 3.967754
        CHANNELS 3 Zrotation Xrotation Yrotation
        JOINT right_clavicle
        {
          OFFSET -13.16364 1.694482 -4.693211
          CHANNELS 3 Zrotation Xrotation Yrotation
          JOINT right_humerus
          {
            OFFSET -28.5034 -0.3100689 -2.792744
            CHANNELS 3 Zrotation Xrotation Yrotation
            JOINT right_radius
            {
              OFFSET -25.15693 0.02248979 -1.271978
              CHANNELS 3 Zrotation Xrotation Yrotation
              End Site
              {
                OFFSET -15 0 0
              }
            }
          }
        }
      }
      JOINT left_manubrium
      {
        OFFSET 5.722621 16.35077 3.967754
        CHANNELS 3 Zrotation Xrotation Yrotation
        JOINT left_clavicle
        {
          OFFSET 13.16364 1.694482 -4.693211
          CHANNELS 3 Zrotation Xrotation Yrotation
          JOINT left_humerus
          {
            OFFSET 29.39168 -1.063119 -2.237045
            CHANNELS 3 Zrotation Xrotation Yrotation
            JOINT left_radius
            {
              OFFSET 24.59957 -0.9528479 0.9047498
              CHANNELS 3 Zrotation Xrotation Yrotation
              End Site
              {
                OFFSET 15 -0 -0
              }
            }
          }
        }
      }
    }
  }
}
MOTION
Frames: 21
Frame Time: 0.0416666666667
-10.04877 119.0161 394.5344 -4.067057 -4.894718 -36.35537 4.454126 9.15018 2.822254 -0 19.89843 -0 -6.825023 -16.92741 -1.728581 0.9569103 -15.40263 -7.456706 -0 16.55584 -0 10.96301 0.3391629 14.13234 0.3482634 -6.495517 7.523503 0.2025789 17.15611 -4.362988 1.747736 18.03831 3.529169 1.601271 -18.16446 4.896058 5.254724 -29.25204 13.13667 81.77475 13.71746 -6.862276 -0 0 27.81158 -27.09195 26.26308 25.39723 1.848317 -22.8513 -9.166659 -98.8117 17.33421 36.59878 0 0 -15.02929 -1.53691 10.65928 22.18121
-11.92865 118.985 399.4193 -4.139299 -4.833822 -37.2073 4.454126 9.15018 2.822254 -0 19.89843 -0 -6.825023 -16.92741 -1.728581 0.9569103 -15.40263 -7.456706 -0 16.55584 -0 10.96301 0.3391629 14.13234 0.3482634 -6.495517 7.523503 0.2025789 17.15611 -4.362988 1.747736 18.03831 3.529169 1.601271 -18.16446 4.896058 5.254724 -29.25204 13.13667 81.77475 13.71746 -6.862276 -0 0 27.81158 -27.09195 26.26308 25.39723 1.848317 -22.8513 -9.166659 -98.8117 17.33421 36.59878 0 0 -15.02929 -1.53691 10.65928 22.18121
-13.88088 118.9539 404.2758 -4.210617 -4.771863 -38.05909 4.454126 9.15018 2.822254 -0 19.89843 -0 -6.825023 -16.92741 -1.728581 0.9569103 -15.40263 -7.456706 -0 16.55584 -0 10.96301 0.3391629 14.13234 0.3482634 -6.495517 7.523503 0.2025789 17.15611 -4.362988 1.747736 18.03831 3.529169 1.601271 -18.16446 4.896058 5.254724 -29.25204 13.13667 81.77475 13.71746 -6.862276 -0 0 27.81158 -27.09195 26.26308 25.39723 1.848317 -22.8513 -9.166659 -98.8117 17.33421 36.59878 0 0 -15.02929 -1.53691 10.65928 22.18121
-15.90502 118.9229 409.1028 -4.280998 -4.708854 -38.91072 4.454126 9.15018 2.822254 -0 19.89843 -0 -6.825023 -16.92741 -1.728581 0.9569103 -15.40263 -7.456706 -0 16.55584 -0 10.96301 0.3391629 14.13234 0.3482634 -6.495517 7.523503 0.2025789 17.15611 -4.362988 1.747736 18.03831 3.529169 1.601271 -18.16446 4.896058 5.254724 -29.25204 13.13667 81.77475 13.71746 -6.862276 -0 0 27.81158 -27.09195 26.26308 25.39723 1.848317 -22.8513 -9.166659 -98.8117 17.33421 36.59878 0 0 -15.02929 -1.53691 10.65928 22.18121
-18.00064 118.8918 413.8991 -4.350424 -4.644809 -39.76219 4.454126 9.15018 2.822254 -0 19.89843 -0 -6.825023 -16.92741 -1.728581 0.9569103 -15.40263 -7.456706 -0 16.55584 -0 10.96301 0.3391629 14.13234 0.3482634 -6.495517 7.523503 0.2025789 17.15611 -4.362988 1.747736 18.03831 3.529169 1.601271 -18.16446 4.896058 5.254724 -29.25204 13.13667 81.77475 13.71746 -6.862276 -0 0 27.81158 -27.09195 26.26308 25.39723 1.848317 -22.8513 -9.166659 -98.8117 17.33421 36.59878 0 0 -15.02929 -1.53691 10.65928 22.18121
-20.16726 118.8607 418.6638 -4.418882 -4.579743 -40.6135 4.454126 9.15018 2.822254 -0 19.89843 -0 -6.825023 -16.92741 -1.728581 0.9569103 -15.40263 -7.456706 -0 16.55584 -0 10.96301 0.3391629 14.13234 0.3482634 -6.495517 7.523503 0.2025789 17.15611 -4.362988 1.747736 18.03831 3.529169 1.601271 -18.16446 4.896058 5.254724 -29.25204 13.13667 81.77475 13.71746 -6.862276 -0 0 27.81158 -27.09195 26.26308 25.39723 1.848317 -22.8513 -9.166659 -98.8117 17.33421 36.59878 0 0 -15.02929 -1.53691 10.65928 22.18121
-22.40442 118.8297 423.3958 -4.486356 -4.513671 -41.46467 4.454126 9.15018 2.822254 -0 19.89843 -0 -6.825023 -16.92741 -1.728581 0.9569103 -15.40263 -7.456706 -0 16.55584 -0 10.96301 0.3391629 14.13234 0.3482634 -6.495517 7.523503 0.2025789 17.15611 -4.362988 1.747736 18.03831 3.529169 1.601271 -18.16446 4.896058 5.254724 -29.25204 13.13667 81.77475 13.71746 -6.862276 -0 0 27.81158 -27.09195 26.26308 25.39723 1.848317 -22.8513 -9.166659 -98.8117 17.33421 36.59878 0 0 -15.02929 -1.53691 10.65928 22.18121
-24.71161 118.7986 428.094 -4.552832 -4.446607 -42.31567 4.454126 9.15018 2.822254 -0 19.89843 -0 -6.825023 -16.92741 -1.728581 0.9569103 -15.40263 -7.456706 -0 16.55584 -0 10.96301 0.3391629 14.13234 0.3482634 -6.495517 7.523503 0.2025789 17.15611 -4.362988 1.747736 18.03831 3.529169 1.601271 -18.16446 4.896058 5.254724 -29.25204 13.13667 81.77475 13.71746 -6.862276 -0 0 27.81158 -27.09195 26.26308 25.39723 1.848317 -22.8513 -9.166659 -98.8117 17.33421 36.59878 0 0 -15.02929 -1.53691 10.65928 22.18121
-27.08833 118.7675 432.7575 -4.618296 -4.378566 -43.16652 4.454126 9.15018 2.822254 -0 19.89843 -0 -6.825023 -16.92741 -1.728581 0.9569103 -15.40263 -7.456706 -0 16.55584 -0 10.96301 0.3391629 14.13234 0.3482634 -6.495517 7.523503 0.2025789 17.15611 -4.362988 1.747736 18.03831 3.529169 1.601271 -18.16446 4.896058 5.254724 -29.25204 13.13667 81.77475 13.71746 -6.862276 -0 0 27.81158 -27.09195 26.26308 25.39723 1.848317 -22.8513 -9.166659 -98.8117 17.33421 36.59878 0 0 -15.02929 -1.53691 10.65928 22.18121
-29.53406 118.7364 437.3851 -4.682733 -4.309564 -44.01721 4.454126 9.15018 2.822254 -0 19.89843 -0 -6.825023 -16.92741 -1.728581 0.9569103 -15.40263 -7.456706 -0 16.55584 -0 10.96301 0.3391629 14.13234 0.3482634 -6.495517 7.523503 0.2025789 17.15611 -4.362988 1.747736 18.03831 3.529169 1.601271 -18.16446 4.896058 5.254724 -29.25204 13.13667 81.77475 13.71746 -6.862276 -0 0 27.81158 -27.09195 26.26308 25.39723 1.848317 -22.8513 -9.166659 -98.8117 17.33421 36.59878 0 0 -15.02929 -1.53691 10.65928 22.18121
-32.04825 118.7054 441.9759 -4.746131 -4.239615 -44.86775 4.454126 9.15018 2.822254 -0 19.89843 -0 -6.825023 -16.92741 -1.728581 0.9569103 -15.40263 -7.456706 -0 16.55584 -0 10.96301 0.3391629 14.13234 0.3482634 -6.495517 7.523503 0.2025789 17.15611 -4.362988 1.747736 18.03831 3.529169 1.601271 -18.16446 4.896058 5.254724 -29.25204 13.13667 81.77475 13.71746 -6.862276 -0 0 27.81158 -27.09195 26.26308 25.39723 1.848317 -22.8513 -9.166659 -98.8117 17.33421 36.59878 0 0 -15.02929 -1.53691 10.65928 22.18121
-34.63036 118.6743 446.5288 -4.808474 -4.168736 -45.71813 4.454126 9.15018 2.822254 -0 19.89843 -0 -6.825023 -16.92741 -1.728581 0.9569103 -15.40263 -7.456706 -0 16.55584 -0 10.96301 0.3391629 14.13234 0.3482634 -6.495517 7.523503 0.2025789 17.15611 -4.362988 1.747736 18.03831 3.529169 1.601271 -18.16446 4.896058 5.254724 -29.25204 13.13667 81.77475 13.71746 -6.862276 -0 0 27.81158 -27.09195 26.26308 25.39723 1.848317 -22.8513 -9.166659 -98.8117 17.33421 36.59878 0 0 -15.02929 -1.53691 10.65928 22.18121
-37.2798 118.6432 451.0429 -4.86975 -4.096941 -46.56836 4.454126 9.15018 2.822254 -0 19.89843 -0 -6.825023 -16.92741 -1.728581 0.9569103 -15.40263 -7.456706 -0 16.55584 -0 10.96301 0.3391629 14.13234 0.3482634 -6.495517 7.523503 0.2025789 17.15611 -4.362988 1.747736 18.03831 3.529169 1.601271 -18.16446 4.896058 5.254724 -29.25204 13.13667 81.77475 13.71746 -6.862276 -0 0 27.81158 -27.09195 26.26308 25.39723 1.848317 -22.8513 -9.166659 -98.8117 17.33421 36.59878 0 0 -15.02929 -1.53691 10.65928 22.18121
-39.996 118.6121 455.5171 -4.929946 -4.024248 -47.41843 4.454126 9.15018 2.822254 -0 19.89843 -0 -6.825023 -16.92741 -1.728581 0.9569103 -15.40263 -7.456706 -0 16.55584 -0 10.96301 0.3391629 14.13234 0.3482634 -6.495517 7.523503 0.2025789 17.15611 -4.362988 1.747736 18.03831 3.529169 1.601271 -18.16446 4.896058 5.254724 -29.25204 13.13667 81.77475 13.71746 -6.862276 -0 0 27.81158 -27.09195 26.26308 25.39723 1.848317 -22.8513 -9.166659 -98.8117 17.33421 36.59878 0 0 -15.02929 -1.53691 10.65928 22.18121
-42.77835 118.5811 459.9505 -4.98905 -3.950672 -48.26835 4.454126 9.15018 2.822254 -0 19.89843 -0 -6.825023 -16.92741 -1.728581 0.9569103 -15.40263 -7.456706 -0 16.55584 -0 10.96301 0.3391629 14.13234 0.3482634 -6.495517 7.523503 0.2025789 17.15611 -4.362988 1.747736 18.03831 3.529169 1.601271 -18.16446 4.896058 5.254724 -29.25204 13.13667 81.77475 13.71746 -6.862276 -0 0 27.81158 -27.09195 26.26308 25.39723 1.848317 -22.8513 -9.166659 -98.8117 17.33421 36.59878 0 0 -15.02929 -1.53691 10.65928 22.18121
-45.62625 118.55 464.3421 -5.047047 -3.87623 -49.11812 4.454126 9.15018 2.822254 -0 19.89843 -0 -6.825023 -16.92741 -1.728581 0.9569103 -15.40263 -7.456706 -0 16.55584 -0 10.96301 0.3391629 14.13234 0.3482634 -6.495517 7.523503 0.2025789 17.15611 -4.362988 1.747736 18.03831 3.529169 1.601271 -18.16446 4.896058 5.254724 -29.25204 13.13667 81.77475 13.71746 -6.862276 -0 0 27.81158 -27.09195 26.26308 25.39723 1.848317 -22.8513 -9.166659 -98.8117 17.33421 36.59878 0 0 -15.02929 -1.53691 10.65928 22.18121
-48.53906 118.5189 468.6909 -5.103927 -3.800937 -49.96774 4.454126 9.15018 2.822254 -0 19.89843 -0 -6.825023 -16.92741 -1.728581 0.9569103 -15.40263 -7.456706 -0 16.55584 -0 10.96301 0.3391629 14.13234 0.3482634 -6.495517 7.523503 0.2025789 17.15611 -4.362988 1.747736 18.03831 3.529169 1.601271 -18.16446 4.896058 5.254724 -29.25204 13.13667 81.77475 13.71746 -6.862276 -0 0 27.81158 -27.09195 26.26308 25.39723 1.848317 -22.8513 -9.166659 -98.8117 17.33421 36.59878 0 0 -15.02929 -1.53691 10.65928 22.18121
-51.51614 118.4879 472.996 -5.159676 -3.724812 -50.81721 4.454126 9.15018 2.822254 -0 19.89843 -0 -6.825023 -16.92741 -1.728581 0.9569103 -15.40263 -7.456706 -0 16.55584 -0 10.96301 0.3391629 14.13234 0.3482634 -6.495517 7.523503 0.2025789 17.15611 -4.362988 1.747736 18.03831 3.529169 1.601271 -18.16446 4.896058 5.254724 -29.25204 13.13667 81.77475 13.71746 -6.862276 -0 0 27.81158 -27.09195 26.26308 25.39723 1.848317 -22.8513 -9.166659 -98.8117 17.33421 36.59878 0 0 -15.02929 -1.53691 10.65928 22.18121
-54.55684 118.4568 477.2563 -5.214284 -3.64787 -51.66654 4.454126 9.15018 2.822254 -0 19.89843 -0 -6.825023 -16.92741 -1.728581 0.9569103 -15.40263 -7.456706 -0 16.55584 -0 10.96301 0.3391629 14.13234 0.3482634 -6.495517 7.523503 0.2025789 17.15611 -4.362988 1.747736 18.03831 3.529169 1.601271 -18.16446 4.896058 5.254724 -29.25204 13.13667 81.77475 13.71746 -6.862276 -0 0 27.81158 -27.09195 26.26308 25.39723 1.848317 -22.8513 -9.166659 -98.8117 17.33421 36.59878 0 0 -15.02929 -1.53691 10.65928 22.18121
-57.66049 118.4257 481.4711 -5.267738 -3.570129 -52.51571 4.454126 9.15018 2.822254 -0 19.89843 -0 -6.825023 -16.92741 -1.728581 0.9569103 -15.40263 -7.456706 -0 16.55584 -0 10.96301 0.3391629 14.13234 0.3482634 -6.495517 7.523503 0.2025789 17.15611 -4.362988 1.747736 18.03831 3.529169 1.601271 -18.16446 4.896058 5.254724 -29.25204 13.13667 81.77475 13.71746 -6.862276 -0 0 27.81158 -27.09195 26.26308 25.39723 1.848317 -22.8513 -9.166659 -98.8117 17.33421 36.59878 0 0 -15.02929 -1.53691 10.65928 22.18121
-60.82639 118.3946 485.6392 -5.320028 -3.491606 -53.36475 4.454126 9.15018 2.822254 -0 19.89843 -0 -6.825023 -16.92741 -1.728581 0.9569103 -15.40263 -7.456706 -0 16.55584 -0 10.96301 0.3391629 14.13234 0.3482634 -6.495517 7.523503 0.2025789 17.15611 -4.362988 1.747736 18.03831 3.529169 1.601271 -18.16446 4.896058 5.254724 -29.25204 13.13667 81.77475 13.71746 -6.862276 -0 0 27.81158 -27.09195 26.26308 25.39723 1.848317 -22.8513 -9.166659 -98.8117 17.33421 36.59878 0 0 -15.02929 -1.53691 10.65928 22.18121
